<mxfile host="app.diagrams.net" agent="Mozilla/5.0 (Windows NT 10.0; Win64; x64) AppleWebKit/537.36 (KHTML, like Gecko) Chrome/136.0.0.0 Safari/537.36" version="27.0.2">
  <diagram name="Page-1" id="uBtBOZ7ceG6ezmwGmGO7">
    <mxGraphModel dx="1281" dy="562" grid="1" gridSize="10" guides="1" tooltips="1" connect="1" arrows="1" fold="1" page="1" pageScale="1" pageWidth="1169" pageHeight="1654" math="0" shadow="0">
      <root>
        <mxCell id="0" />
        <mxCell id="1" parent="0" />
        <mxCell id="qkusu1gQsJUboTempl9C-2" value="&lt;font style=&quot;font-size: 18px;&quot;&gt;Edit and delete products object diagram&lt;/font&gt;" style="text;align=center;fontStyle=1;verticalAlign=middle;spacingLeft=3;spacingRight=3;strokeColor=none;rotatable=0;points=[[0,0.5],[1,0.5]];portConstraint=eastwest;html=1;" vertex="1" parent="1">
          <mxGeometry x="405" y="20" width="360" height="26" as="geometry" />
        </mxCell>
        <mxCell id="qkusu1gQsJUboTempl9C-3" value="&lt;font style=&quot;font-size: 18px;&quot;&gt;Precondition&lt;/font&gt;" style="text;html=1;align=center;verticalAlign=middle;resizable=0;points=[];autosize=1;strokeColor=none;fillColor=none;" vertex="1" parent="1">
          <mxGeometry x="500" y="63" width="120" height="40" as="geometry" />
        </mxCell>
        <mxCell id="qkusu1gQsJUboTempl9C-4" value="&lt;font style=&quot;font-size: 14px;&quot;&gt;:dashbaord&lt;/font&gt;" style="swimlane;fontStyle=0;childLayout=stackLayout;horizontal=1;startSize=26;fillColor=none;horizontalStack=0;resizeParent=1;resizeParentMax=0;resizeLast=0;collapsible=1;marginBottom=0;whiteSpace=wrap;html=1;" vertex="1" parent="1">
          <mxGeometry x="440" y="190" width="140" height="90" as="geometry" />
        </mxCell>
        <mxCell id="qkusu1gQsJUboTempl9C-5" value="&lt;font style=&quot;font-size: 14px;&quot;&gt;totalAds=9&lt;/font&gt;&lt;div&gt;&lt;font size=&quot;3&quot;&gt;FeaturedAds=3&lt;/font&gt;&lt;/div&gt;&lt;div&gt;&lt;font size=&quot;3&quot;&gt;messages=0&lt;/font&gt;&lt;/div&gt;" style="text;strokeColor=none;fillColor=none;align=left;verticalAlign=top;spacingLeft=4;spacingRight=4;overflow=hidden;rotatable=0;points=[[0,0.5],[1,0.5]];portConstraint=eastwest;whiteSpace=wrap;html=1;" vertex="1" parent="qkusu1gQsJUboTempl9C-4">
          <mxGeometry y="26" width="140" height="64" as="geometry" />
        </mxCell>
        <mxCell id="qkusu1gQsJUboTempl9C-8" value="&lt;font style=&quot;font-size: 14px;&quot;&gt;p1:product&lt;/font&gt;" style="swimlane;fontStyle=0;childLayout=stackLayout;horizontal=1;startSize=26;fillColor=none;horizontalStack=0;resizeParent=1;resizeParentMax=0;resizeLast=0;collapsible=1;marginBottom=0;whiteSpace=wrap;html=1;" vertex="1" parent="1">
          <mxGeometry x="420" y="430" width="160" height="140" as="geometry" />
        </mxCell>
        <mxCell id="qkusu1gQsJUboTempl9C-9" value="&lt;font style=&quot;font-size: 14px;&quot;&gt;&lt;span style=&quot;text-wrap-mode: nowrap;&quot;&gt;ID= 8&lt;/span&gt;&lt;br style=&quot;padding: 0px; margin: 0px; text-wrap-mode: nowrap;&quot;&gt;&lt;span style=&quot;text-wrap-mode: nowrap;&quot;&gt;Name= &quot;Playstation 5&quot;&lt;/span&gt;&lt;br style=&quot;padding: 0px; margin: 0px; text-wrap-mode: nowrap;&quot;&gt;&lt;span style=&quot;text-wrap-mode: nowrap;&quot;&gt;Description= &quot;PS5 good&lt;/span&gt;&lt;/font&gt;&lt;div&gt;&lt;font style=&quot;font-size: 14px;&quot;&gt;&lt;span style=&quot;text-wrap-mode: nowrap;&quot;&gt;condition&quot;&lt;/span&gt;&lt;br style=&quot;padding: 0px; margin: 0px; text-wrap-mode: nowrap;&quot;&gt;&lt;span style=&quot;text-wrap-mode: nowrap;&quot;&gt;Photo= img.png&lt;/span&gt;&lt;/font&gt;&lt;/div&gt;" style="text;strokeColor=none;fillColor=none;align=left;verticalAlign=top;spacingLeft=4;spacingRight=4;overflow=hidden;rotatable=0;points=[[0,0.5],[1,0.5]];portConstraint=eastwest;whiteSpace=wrap;html=1;" vertex="1" parent="qkusu1gQsJUboTempl9C-8">
          <mxGeometry y="26" width="160" height="114" as="geometry" />
        </mxCell>
        <mxCell id="qkusu1gQsJUboTempl9C-10" value="" style="endArrow=open;endFill=1;endSize=12;html=1;rounded=0;entryX=0.5;entryY=0;entryDx=0;entryDy=0;exitX=0.404;exitY=1.053;exitDx=0;exitDy=0;exitPerimeter=0;" edge="1" parent="1" source="qkusu1gQsJUboTempl9C-5" target="qkusu1gQsJUboTempl9C-8">
          <mxGeometry width="160" relative="1" as="geometry">
            <mxPoint x="500" y="350" as="sourcePoint" />
            <mxPoint x="660" y="350" as="targetPoint" />
          </mxGeometry>
        </mxCell>
        <mxCell id="qkusu1gQsJUboTempl9C-11" value="shows" style="edgeLabel;html=1;align=center;verticalAlign=middle;resizable=0;points=[];" vertex="1" connectable="0" parent="qkusu1gQsJUboTempl9C-10">
          <mxGeometry x="-0.2574" y="1" relative="1" as="geometry">
            <mxPoint as="offset" />
          </mxGeometry>
        </mxCell>
        <mxCell id="qkusu1gQsJUboTempl9C-12" value="1" style="text;html=1;align=center;verticalAlign=middle;resizable=0;points=[];autosize=1;strokeColor=none;fillColor=none;" vertex="1" parent="1">
          <mxGeometry x="495" y="278" width="30" height="30" as="geometry" />
        </mxCell>
        <mxCell id="qkusu1gQsJUboTempl9C-13" value="*" style="text;html=1;align=center;verticalAlign=middle;resizable=0;points=[];autosize=1;strokeColor=none;fillColor=none;" vertex="1" parent="1">
          <mxGeometry x="495" y="388" width="30" height="30" as="geometry" />
        </mxCell>
        <mxCell id="qkusu1gQsJUboTempl9C-14" value="&lt;font style=&quot;font-size: 14px;&quot;&gt;Owner:user&lt;/font&gt;" style="swimlane;fontStyle=0;childLayout=stackLayout;horizontal=1;startSize=26;fillColor=none;horizontalStack=0;resizeParent=1;resizeParentMax=0;resizeLast=0;collapsible=1;marginBottom=0;whiteSpace=wrap;html=1;" vertex="1" parent="1">
          <mxGeometry x="140" y="455" width="165" height="90" as="geometry" />
        </mxCell>
        <mxCell id="qkusu1gQsJUboTempl9C-15" value="&lt;font style=&quot;font-size: 14px;&quot;&gt;&lt;span style=&quot;text-wrap-mode: nowrap;&quot;&gt;Name= &quot;omar amir&quot;&lt;/span&gt;&lt;br style=&quot;text-wrap-mode: nowrap; padding: 0px; margin: 0px;&quot;&gt;&lt;span style=&quot;text-wrap-mode: nowrap;&quot;&gt;Password= ******&lt;/span&gt;&lt;br style=&quot;text-wrap-mode: nowrap; padding: 0px; margin: 0px;&quot;&gt;&lt;span style=&quot;text-wrap-mode: nowrap;&quot;&gt;userid= 9&lt;/span&gt;&lt;/font&gt;" style="text;strokeColor=none;fillColor=none;align=left;verticalAlign=top;spacingLeft=4;spacingRight=4;overflow=hidden;rotatable=0;points=[[0,0.5],[1,0.5]];portConstraint=eastwest;whiteSpace=wrap;html=1;" vertex="1" parent="qkusu1gQsJUboTempl9C-14">
          <mxGeometry y="26" width="165" height="64" as="geometry" />
        </mxCell>
        <mxCell id="qkusu1gQsJUboTempl9C-17" value="" style="endArrow=diamondThin;endFill=1;endSize=24;html=1;rounded=0;entryX=1.002;entryY=0.375;entryDx=0;entryDy=0;entryPerimeter=0;exitX=-0.016;exitY=0.388;exitDx=0;exitDy=0;exitPerimeter=0;" edge="1" parent="1" source="qkusu1gQsJUboTempl9C-9" target="qkusu1gQsJUboTempl9C-15">
          <mxGeometry width="160" relative="1" as="geometry">
            <mxPoint x="500" y="350" as="sourcePoint" />
            <mxPoint x="660" y="350" as="targetPoint" />
          </mxGeometry>
        </mxCell>
        <mxCell id="qkusu1gQsJUboTempl9C-18" value="owns" style="edgeLabel;html=1;align=center;verticalAlign=middle;resizable=0;points=[];" vertex="1" connectable="0" parent="qkusu1gQsJUboTempl9C-17">
          <mxGeometry x="0.1998" y="-4" relative="1" as="geometry">
            <mxPoint as="offset" />
          </mxGeometry>
        </mxCell>
        <mxCell id="qkusu1gQsJUboTempl9C-19" value="1" style="text;html=1;align=center;verticalAlign=middle;resizable=0;points=[];autosize=1;strokeColor=none;fillColor=none;" vertex="1" parent="1">
          <mxGeometry x="305" y="508" width="30" height="30" as="geometry" />
        </mxCell>
        <mxCell id="qkusu1gQsJUboTempl9C-20" value="*" style="text;html=1;align=center;verticalAlign=middle;resizable=0;points=[];autosize=1;strokeColor=none;fillColor=none;" vertex="1" parent="1">
          <mxGeometry x="390" y="508" width="30" height="30" as="geometry" />
        </mxCell>
        <mxCell id="qkusu1gQsJUboTempl9C-21" value="&lt;font style=&quot;font-size: 14px;&quot;&gt;e:Category&lt;/font&gt;" style="swimlane;fontStyle=0;childLayout=stackLayout;horizontal=1;startSize=26;fillColor=none;horizontalStack=0;resizeParent=1;resizeParentMax=0;resizeLast=0;collapsible=1;marginBottom=0;whiteSpace=wrap;html=1;" vertex="1" parent="1">
          <mxGeometry x="730" y="455" width="150" height="80" as="geometry" />
        </mxCell>
        <mxCell id="qkusu1gQsJUboTempl9C-22" value="&lt;font style=&quot;font-size: 14px;&quot;&gt;CategoryId=1&lt;/font&gt;&lt;div&gt;&lt;font style=&quot;font-size: 14px;&quot;&gt;name=&quot;electronics&quot;&lt;/font&gt;&lt;/div&gt;" style="text;strokeColor=none;fillColor=none;align=left;verticalAlign=top;spacingLeft=4;spacingRight=4;overflow=hidden;rotatable=0;points=[[0,0.5],[1,0.5]];portConstraint=eastwest;whiteSpace=wrap;html=1;" vertex="1" parent="qkusu1gQsJUboTempl9C-21">
          <mxGeometry y="26" width="150" height="54" as="geometry" />
        </mxCell>
        <mxCell id="qkusu1gQsJUboTempl9C-23" value="" style="endArrow=open;endFill=1;endSize=12;html=1;rounded=0;entryX=0.028;entryY=0.385;entryDx=0;entryDy=0;entryPerimeter=0;" edge="1" parent="1" target="qkusu1gQsJUboTempl9C-22">
          <mxGeometry width="160" relative="1" as="geometry">
            <mxPoint x="580" y="499.5" as="sourcePoint" />
            <mxPoint x="720" y="500" as="targetPoint" />
          </mxGeometry>
        </mxCell>
        <mxCell id="qkusu1gQsJUboTempl9C-24" value="belongs to" style="edgeLabel;html=1;align=center;verticalAlign=middle;resizable=0;points=[];" vertex="1" connectable="0" parent="qkusu1gQsJUboTempl9C-23">
          <mxGeometry x="-0.3904" relative="1" as="geometry">
            <mxPoint as="offset" />
          </mxGeometry>
        </mxCell>
        <mxCell id="qkusu1gQsJUboTempl9C-25" value="1" style="text;html=1;align=center;verticalAlign=middle;resizable=0;points=[];autosize=1;strokeColor=none;fillColor=none;" vertex="1" parent="1">
          <mxGeometry x="685" y="508" width="30" height="30" as="geometry" />
        </mxCell>
        <mxCell id="qkusu1gQsJUboTempl9C-26" value="*" style="text;html=1;align=center;verticalAlign=middle;resizable=0;points=[];autosize=1;strokeColor=none;fillColor=none;" vertex="1" parent="1">
          <mxGeometry x="575" y="508" width="30" height="30" as="geometry" />
        </mxCell>
        <mxCell id="qkusu1gQsJUboTempl9C-27" value="" style="line;strokeWidth=1;fillColor=none;align=left;verticalAlign=middle;spacingTop=-1;spacingLeft=3;spacingRight=3;rotatable=0;labelPosition=right;points=[];portConstraint=eastwest;strokeColor=inherit;" vertex="1" parent="1">
          <mxGeometry x="30" y="650" width="1110" height="8" as="geometry" />
        </mxCell>
        <mxCell id="qkusu1gQsJUboTempl9C-28" value="&lt;font style=&quot;font-size: 14px;&quot;&gt;:dashbaord&lt;/font&gt;" style="swimlane;fontStyle=0;childLayout=stackLayout;horizontal=1;startSize=26;fillColor=none;horizontalStack=0;resizeParent=1;resizeParentMax=0;resizeLast=0;collapsible=1;marginBottom=0;whiteSpace=wrap;html=1;" vertex="1" parent="1">
          <mxGeometry x="480" y="780" width="140" height="90" as="geometry" />
        </mxCell>
        <mxCell id="qkusu1gQsJUboTempl9C-29" value="&lt;font style=&quot;font-size: 14px;&quot;&gt;totalAds=8&lt;/font&gt;&lt;div&gt;&lt;font size=&quot;3&quot;&gt;FeaturedAds=2&lt;/font&gt;&lt;/div&gt;&lt;div&gt;&lt;font size=&quot;3&quot;&gt;messages=0&lt;/font&gt;&lt;/div&gt;" style="text;strokeColor=none;fillColor=none;align=left;verticalAlign=top;spacingLeft=4;spacingRight=4;overflow=hidden;rotatable=0;points=[[0,0.5],[1,0.5]];portConstraint=eastwest;whiteSpace=wrap;html=1;" vertex="1" parent="qkusu1gQsJUboTempl9C-28">
          <mxGeometry y="26" width="140" height="64" as="geometry" />
        </mxCell>
        <mxCell id="qkusu1gQsJUboTempl9C-30" value="&lt;font style=&quot;font-size: 14px;&quot;&gt;p1:product&lt;/font&gt;" style="swimlane;fontStyle=0;childLayout=stackLayout;horizontal=1;startSize=26;fillColor=none;horizontalStack=0;resizeParent=1;resizeParentMax=0;resizeLast=0;collapsible=1;marginBottom=0;whiteSpace=wrap;html=1;" vertex="1" parent="1">
          <mxGeometry x="460" y="1020" width="160" height="140" as="geometry" />
        </mxCell>
        <mxCell id="qkusu1gQsJUboTempl9C-31" value="&lt;font style=&quot;font-size: 14px;&quot;&gt;&lt;span style=&quot;text-wrap-mode: nowrap;&quot;&gt;ID= Null&lt;/span&gt;&lt;br style=&quot;padding: 0px; margin: 0px; text-wrap-mode: nowrap;&quot;&gt;&lt;span style=&quot;text-wrap-mode: nowrap;&quot;&gt;Name= &quot;&quot;&lt;/span&gt;&lt;br style=&quot;padding: 0px; margin: 0px; text-wrap-mode: nowrap;&quot;&gt;&lt;span style=&quot;text-wrap-mode: nowrap;&quot;&gt;Description= &quot;&lt;/span&gt;&lt;/font&gt;&lt;span style=&quot;text-wrap-mode: nowrap; font-size: 14px; background-color: transparent; color: light-dark(rgb(0, 0, 0), rgb(255, 255, 255));&quot;&gt;&quot;&lt;/span&gt;&lt;div&gt;&lt;font style=&quot;font-size: 14px;&quot;&gt;&lt;span style=&quot;text-wrap-mode: nowrap;&quot;&gt;Photo= NULL&lt;/span&gt;&lt;/font&gt;&lt;/div&gt;" style="text;strokeColor=none;fillColor=none;align=left;verticalAlign=top;spacingLeft=4;spacingRight=4;overflow=hidden;rotatable=0;points=[[0,0.5],[1,0.5]];portConstraint=eastwest;whiteSpace=wrap;html=1;" vertex="1" parent="qkusu1gQsJUboTempl9C-30">
          <mxGeometry y="26" width="160" height="114" as="geometry" />
        </mxCell>
        <mxCell id="qkusu1gQsJUboTempl9C-32" value="" style="endArrow=open;endFill=1;endSize=12;html=1;rounded=0;entryX=0.5;entryY=0;entryDx=0;entryDy=0;exitX=0.404;exitY=1.053;exitDx=0;exitDy=0;exitPerimeter=0;" edge="1" parent="1" source="qkusu1gQsJUboTempl9C-29" target="qkusu1gQsJUboTempl9C-30">
          <mxGeometry width="160" relative="1" as="geometry">
            <mxPoint x="540" y="940" as="sourcePoint" />
            <mxPoint x="700" y="940" as="targetPoint" />
          </mxGeometry>
        </mxCell>
        <mxCell id="qkusu1gQsJUboTempl9C-33" value="shows" style="edgeLabel;html=1;align=center;verticalAlign=middle;resizable=0;points=[];" vertex="1" connectable="0" parent="qkusu1gQsJUboTempl9C-32">
          <mxGeometry x="-0.2574" y="1" relative="1" as="geometry">
            <mxPoint as="offset" />
          </mxGeometry>
        </mxCell>
        <mxCell id="qkusu1gQsJUboTempl9C-34" value="1" style="text;html=1;align=center;verticalAlign=middle;resizable=0;points=[];autosize=1;strokeColor=none;fillColor=none;" vertex="1" parent="1">
          <mxGeometry x="535" y="868" width="30" height="30" as="geometry" />
        </mxCell>
        <mxCell id="qkusu1gQsJUboTempl9C-35" value="*" style="text;html=1;align=center;verticalAlign=middle;resizable=0;points=[];autosize=1;strokeColor=none;fillColor=none;" vertex="1" parent="1">
          <mxGeometry x="535" y="978" width="30" height="30" as="geometry" />
        </mxCell>
        <mxCell id="qkusu1gQsJUboTempl9C-36" value="&lt;font style=&quot;font-size: 14px;&quot;&gt;Owner:user&lt;/font&gt;" style="swimlane;fontStyle=0;childLayout=stackLayout;horizontal=1;startSize=26;fillColor=none;horizontalStack=0;resizeParent=1;resizeParentMax=0;resizeLast=0;collapsible=1;marginBottom=0;whiteSpace=wrap;html=1;" vertex="1" parent="1">
          <mxGeometry x="180" y="1045" width="165" height="90" as="geometry" />
        </mxCell>
        <mxCell id="qkusu1gQsJUboTempl9C-37" value="&lt;font style=&quot;font-size: 14px;&quot;&gt;&lt;span style=&quot;text-wrap-mode: nowrap;&quot;&gt;Name= &quot;omar amir&quot;&lt;/span&gt;&lt;br style=&quot;text-wrap-mode: nowrap; padding: 0px; margin: 0px;&quot;&gt;&lt;span style=&quot;text-wrap-mode: nowrap;&quot;&gt;Password= ******&lt;/span&gt;&lt;br style=&quot;text-wrap-mode: nowrap; padding: 0px; margin: 0px;&quot;&gt;&lt;span style=&quot;text-wrap-mode: nowrap;&quot;&gt;userid= 9&lt;/span&gt;&lt;/font&gt;" style="text;strokeColor=none;fillColor=none;align=left;verticalAlign=top;spacingLeft=4;spacingRight=4;overflow=hidden;rotatable=0;points=[[0,0.5],[1,0.5]];portConstraint=eastwest;whiteSpace=wrap;html=1;" vertex="1" parent="qkusu1gQsJUboTempl9C-36">
          <mxGeometry y="26" width="165" height="64" as="geometry" />
        </mxCell>
        <mxCell id="qkusu1gQsJUboTempl9C-38" value="" style="endArrow=diamondThin;endFill=1;endSize=24;html=1;rounded=0;entryX=1.002;entryY=0.375;entryDx=0;entryDy=0;entryPerimeter=0;exitX=-0.016;exitY=0.388;exitDx=0;exitDy=0;exitPerimeter=0;" edge="1" parent="1" source="qkusu1gQsJUboTempl9C-31" target="qkusu1gQsJUboTempl9C-37">
          <mxGeometry width="160" relative="1" as="geometry">
            <mxPoint x="540" y="940" as="sourcePoint" />
            <mxPoint x="700" y="940" as="targetPoint" />
          </mxGeometry>
        </mxCell>
        <mxCell id="qkusu1gQsJUboTempl9C-39" value="owns" style="edgeLabel;html=1;align=center;verticalAlign=middle;resizable=0;points=[];" vertex="1" connectable="0" parent="qkusu1gQsJUboTempl9C-38">
          <mxGeometry x="0.1998" y="-4" relative="1" as="geometry">
            <mxPoint as="offset" />
          </mxGeometry>
        </mxCell>
        <mxCell id="qkusu1gQsJUboTempl9C-40" value="1" style="text;html=1;align=center;verticalAlign=middle;resizable=0;points=[];autosize=1;strokeColor=none;fillColor=none;" vertex="1" parent="1">
          <mxGeometry x="345" y="1098" width="30" height="30" as="geometry" />
        </mxCell>
        <mxCell id="qkusu1gQsJUboTempl9C-41" value="*" style="text;html=1;align=center;verticalAlign=middle;resizable=0;points=[];autosize=1;strokeColor=none;fillColor=none;" vertex="1" parent="1">
          <mxGeometry x="430" y="1098" width="30" height="30" as="geometry" />
        </mxCell>
        <mxCell id="qkusu1gQsJUboTempl9C-42" value="&lt;font style=&quot;font-size: 14px;&quot;&gt;e:Category&lt;/font&gt;" style="swimlane;fontStyle=0;childLayout=stackLayout;horizontal=1;startSize=26;fillColor=none;horizontalStack=0;resizeParent=1;resizeParentMax=0;resizeLast=0;collapsible=1;marginBottom=0;whiteSpace=wrap;html=1;" vertex="1" parent="1">
          <mxGeometry x="770" y="1045" width="150" height="80" as="geometry" />
        </mxCell>
        <mxCell id="qkusu1gQsJUboTempl9C-43" value="&lt;font style=&quot;font-size: 14px;&quot;&gt;CategoryId=NULL&lt;/font&gt;&lt;div&gt;&lt;font style=&quot;font-size: 14px;&quot;&gt;name=&quot;&quot;&lt;/font&gt;&lt;/div&gt;" style="text;strokeColor=none;fillColor=none;align=left;verticalAlign=top;spacingLeft=4;spacingRight=4;overflow=hidden;rotatable=0;points=[[0,0.5],[1,0.5]];portConstraint=eastwest;whiteSpace=wrap;html=1;" vertex="1" parent="qkusu1gQsJUboTempl9C-42">
          <mxGeometry y="26" width="150" height="54" as="geometry" />
        </mxCell>
        <mxCell id="qkusu1gQsJUboTempl9C-44" value="" style="endArrow=open;endFill=1;endSize=12;html=1;rounded=0;entryX=0.028;entryY=0.385;entryDx=0;entryDy=0;entryPerimeter=0;" edge="1" parent="1" target="qkusu1gQsJUboTempl9C-43">
          <mxGeometry width="160" relative="1" as="geometry">
            <mxPoint x="620" y="1089.5" as="sourcePoint" />
            <mxPoint x="760" y="1090" as="targetPoint" />
          </mxGeometry>
        </mxCell>
        <mxCell id="qkusu1gQsJUboTempl9C-45" value="belongs to" style="edgeLabel;html=1;align=center;verticalAlign=middle;resizable=0;points=[];" vertex="1" connectable="0" parent="qkusu1gQsJUboTempl9C-44">
          <mxGeometry x="-0.3904" relative="1" as="geometry">
            <mxPoint as="offset" />
          </mxGeometry>
        </mxCell>
        <mxCell id="qkusu1gQsJUboTempl9C-46" value="1" style="text;html=1;align=center;verticalAlign=middle;resizable=0;points=[];autosize=1;strokeColor=none;fillColor=none;" vertex="1" parent="1">
          <mxGeometry x="725" y="1098" width="30" height="30" as="geometry" />
        </mxCell>
        <mxCell id="qkusu1gQsJUboTempl9C-47" value="*" style="text;html=1;align=center;verticalAlign=middle;resizable=0;points=[];autosize=1;strokeColor=none;fillColor=none;" vertex="1" parent="1">
          <mxGeometry x="615" y="1098" width="30" height="30" as="geometry" />
        </mxCell>
        <mxCell id="qkusu1gQsJUboTempl9C-48" value="&lt;font style=&quot;font-size: 18px;&quot;&gt;postconditions (product deleted)&lt;/font&gt;" style="text;html=1;align=center;verticalAlign=middle;resizable=0;points=[];autosize=1;strokeColor=none;fillColor=none;" vertex="1" parent="1">
          <mxGeometry x="410" y="683" width="280" height="40" as="geometry" />
        </mxCell>
      </root>
    </mxGraphModel>
  </diagram>
</mxfile>
